# xmcd CD database file
#
# Track frame offsets:
#	150
#	14300
#	29880
#	42767
#	54939
#	69504
#	79368
#	96942
#	113769
#	127543
#	144806
#	157734
#
# Disc length: 2297 seconds
#
# Revision: 1
# Processed by: cddbd v1.4PL0 Copyright (c) Steve Scherf et al.
# Submitted via: CDValet v3.40 - Copyright (c) 1996 - 1998 Greg Leichner
#
DISCID=8d08f70c
DTITLE=Brewer, Gary and The Kentucky Ramblers - Home Brew
DYEAR=1900
DGENRE=
TTITLE0=Elvis On Velvet And Monroe On Grass
TTITLE1=Dance In Old Kentucky
TTITLE2=Chattanooga Dog
TTITLE3=Poor Ellen Smith
TTITLE4=God Was There
TTITLE5=Old Dan Tucker
TTITLE6=I Haven't Seen Mary In Years
TTITLE7=Molly And Mildred
TTITLE8=Lonesome Guitar
TTITLE9=Pastures Of Plenty
TTITLE10=Sea Of Heartbreak
TTITLE11=Little Liza Jane
EXTD=
EXTT0=
EXTT1=
EXTT2=
EXTT3=
EXTT4=
EXTT5=
EXTT6=
EXTT7=
EXTT8=
EXTT9=
EXTT10=
EXTT11=
PLAYORDER=
